<svg xmlns="http://www.w3.org/2000/svg" version="1.1" xmlns:xlink="http://www.w3.org/1999/xlink" xmlns:svgjs="http://svgjs.dev/svgjs" width="100%" height="100%" viewBox="0 0 1000 600"><rect width="1000" height="600" x="0" y="0" fill="#ffffff"/><g><circle r="166.66666666666666" cx="366.8131663004557" cy="389.0354471026808" fill="#209cee" transform="matrix(0.6245423174179404,0,0,0.6245423174179405,0,57.0308901408969)"/><path d="M433.9084319461865 414.9499651518315L433.9084319461865 414.9499651518315Q437.2224485335565 414.9499651518315 437.2224485335565 423.9412724503516L437.2224485335565 423.9412724503516Q437.2224485335565 428.83080512024173 433.12067390492643 435.78480713964103Q429.0188992762964 442.71164508865206 422.47235831272127 448.4975920813553Q415.89865327875793 454.2563750036703 407.8852525142158 457.97785264686445Q399.8718517496736 461.69933029005864 390.9620366623184 461.69933029005864Q382.0793856453513 461.69933029005864 377.08119669390805 455.9133832973554Q372.1101718128531 450.15460037504033 372.1101718128531 443.0104498629231Q372.1101718128531 435.8662993508059 374.44628186624504 426.8749920522857Q376.782391919637 417.8836847537656 379.5259630288531 408.1046194139853L379.5259630288531 408.1046194139853Q386.9689183152414 382.08143998201456 387.15906680795933 371.5146166009743L387.15906680795933 371.5146166009743Q387.15906680795933 367.0325449869083 385.9910117812634 364.5877786519633Q384.8229567545674 362.14301231701825 381.4817760968092 362.14301231701825L381.4817760968092 362.14301231701825Q375.614336892941 362.14301231701825 368.9591396478128 369.17850654758234Q362.33110647307285 376.21400077814644 356.46366726920473 387.16112114462265L356.46366726920473 387.16112114462265Q342.96312428623037 412.20639404261533 342.1753662449703 436.0564478435238L342.1753662449703 436.0564478435238Q342.5556632304062 438.80001895273995 342.96312428623037 441.543590061956Q343.3434212716663 444.28716117117216 343.3434212716663 447.41102926582414L343.3434212716663 447.41102926582414Q343.3434212716663 453.6587654551282 337.17717729352705 458.84710289928944Q331.03809738577615 464.03544034345055 323.4049936066699 464.03544034345055L323.4049936066699 464.03544034345055Q318.8957579222157 464.03544034345055 316.7497963615417 459.63486094054946Q314.60383480086773 455.23428153764837 314.60383480086773 448.7692327852381L314.60383480086773 448.7692327852381Q314.60383480086773 442.3313481032161 317.5375544028018 431.1669151736337Q320.47127400473585 420.02964631443956 323.97543908482373 407.50700986544314L323.97543908482373 407.50700986544314Q333.3742074391681 374.44833620290837 333.56435593188604 358.23138618110613L333.56435593188604 358.23138618110613Q333.56435593188604 350.0006728534578 331.5270506527651 345.32845274667386Q329.462581303256 340.6290685695017 323.5951420993879 340.6290685695017L323.5951420993879 340.6290685695017Q313.0283187183476 340.6290685695017 302.67880790041346 355.6779635646079Q292.3021330120911 370.7540226301025 284.098583754831 402.4273287028351L284.098583754831 402.4273287028351Q281.92545812376875 410.6308779600952 280.7574030970728 416.71562972706954L280.7574030970728 416.71562972706954L280.56725460435484 420.4099432998754Q284.288732247549 438.41972196730404 284.288732247549 443.879700115348L284.288732247549 443.879700115348Q284.288732247549 455.23428153764837 276.2753314830069 459.1459076735605L276.2753314830069 459.1459076735605Q272.55385383981275 460.91157224879856 269.13118097088966 462.4599242609304Q265.7085081019666 464.03544034345055 261.79688196605446 464.03544034345055L261.79688196605446 464.03544034345055Q252.01781662627423 464.03544034345055 252.01781662627423 445.346559916315Q252.01781662627423 426.68484355956775 262.3673274442083 372.3023746422343L262.3673274442083 372.3023746422343Q266.0888050874024 352.74424396267386 266.0888050874024 350.40813390928196L266.0888050874024 350.40813390928196Q266.0888050874024 334.57148087291563 258.0754043228603 334.57148087291563L258.0754043228603 334.57148087291563Q255.3318332136442 334.57148087291563 253.07721537141708 336.1198328850475Q250.84976159957824 337.69534896756767 248.59514375735114 339.46101354280574Q246.34052591512403 341.19951404765555 244.0044158617321 342.7750301301757Q241.64114173795187 344.35054621269586 238.62592992485295 344.35054621269586Q235.58355404136577 344.35054621269586 235.58355404136577 339.0535524869816L235.58355404136577 339.0535524869816Q235.58355404136577 328.2965806132233 245.55276787386396 321.45123487537717L245.55276787386396 321.45123487537717Q255.14168472092624 314.41574064481307 268.83237619661855 314.41574064481307L268.83237619661855 314.41574064481307Q286.43469380822296 314.41574064481307 289.558561902875 330.8500032297215L289.558561902875 330.8500032297215Q290.3463199441351 335.7395358996116 290.726616929571 341.19951404765555L290.726616929571 341.19951404765555Q305.20506644652335 314.0354436593771 327.316619742582 314.0354436593771L327.316619742582 314.0354436593771Q351.35682203620837 314.0354436593771 354.8881511866846 337.0977394190255L354.8881511866846 337.0977394190255Q356.05620621338056 343.7529366641537 355.86605772066264 351.38604044325996L355.86605772066264 351.38604044325996L355.86605772066264 352.93439245539184Q368.5788426623769 335.33207484378744 385.9910117812634 335.33207484378744L385.9910117812634 335.33207484378744Q410.6288236234319 335.33207484378744 410.6288236234319 365.0767319189523L410.6288236234319 365.0767319189523Q410.6288236234319 377.9796653533845 406.6085412059667 395.2831781907179Q402.6154228588898 412.58669102805123 400.74110200209856 420.1383025959926Q398.8939452156956 427.66275009354575 398.8939452156956 431.7645247221758L398.8939452156956 431.7645247221758Q398.8939452156956 439.2074800085641 404.0822826598568 439.2074800085641Q409.270620104018 439.2074800085641 428.82875078357847 418.8615912877436L428.82875078357847 418.8615912877436Q432.33291586366636 414.9499651518315 433.9084319461865 414.9499651518315ZM472.04678677132944 366.35344322720135Q485.13986869847963 366.24478694564823 491.6049174508899 371.24297589709147Q498.04280213291185 376.21400077814644 498.04280213291185 385.50411285093764Q498.04280213291185 394.79422492372885 492.4741677033148 401.340765887304Q486.9055332737177 407.91447092126737 478.8921325091756 410.6308779600952L478.8921325091756 410.6308779600952Q484.56942322032575 416.49831716396335 489.1601511159448 422.5830689309377Q493.7508790115639 428.6406566275238 493.7508790115639 435.295853872652L493.7508790115639 435.295853872652Q493.7508790115639 448.3889357998022 483.3742041232415 455.5330863119194Q473.0246933053074 462.67723682403664 454.52596137088983 462.67723682403664Q436.0543935068605 462.67723682403664 426.8729377156224 455.3429378192015Q417.664317853996 448.00863881436635 417.664317853996 438.7185267415751Q417.664317853996 429.4284146687839 422.2550457496151 421.79531088967764Q426.8729377156224 414.1622071105714 432.14276737094843 414.1622071105714L432.14276737094843 414.1622071105714Q435.2666354656005 414.1622071105714 436.65200305540264 416.4168249527985Q438.01020657481655 418.6714427950256 441.7316842180107 429.4284146687839L441.7316842180107 429.4284146687839Q443.08988773742465 433.34004080469595 446.2137558320767 436.8442058847839L446.2137558320767 436.8442058847839Q453.466562625747 444.857606649326 469.1130671693953 444.857606649326L469.1130671693953 444.857606649326Q466.74979304561515 437.441815433326 461.5886196718422 432.06332949644684Q456.4002822276811 426.68484355956775 451.320601065073 421.6051623969597Q446.2137558320767 416.49831716396335 442.30212969616457 410.7395342416483Q438.39050356025245 404.9807513193333 438.39050356025245 397.1574990475091L438.39050356025245 397.1574990475091Q438.39050356025245 383.0593465159926 448.95732694129276 374.2581877101904L448.95732694129276 374.2581877101904Q458.9265407737909 366.4349354383662 472.04678677132944 366.35344322720135ZM471.25902873006936 402.6174771955531L471.25902873006936 402.6174771955531Q479.08228100189353 394.223779445575 479.08228100189353 389.1169342125787L479.08228100189353 389.1169342125787Q479.08228100189353 386.78082415918675 477.4252727082085 384.9336673727838Q475.76826441452357 383.0593465159926 472.61723224948327 383.0593465159926Q469.4933641548312 383.0593465159926 466.66830083445024 383.8471045572527Q463.81607344368103 384.63486259851277 462.0775729388312 385.0151595839486L462.0775729388312 385.0151595839486Q462.0775729388312 392.45811487033694 471.25902873006936 402.6174771955531Z " fill="#ffffff" transform="matrix(0.6245423174179404,0,0,0.6245423174179405,0,57.0308901408969)"/><path d="M803.2216941962654 417.7205516191554L803.2216941962654 417.7205516191554Q806.3365878132867 417.7205516191554 806.3365878132867 426.1716154489426L806.3365878132867 426.1716154489426Q806.3365878132867 430.7673601297937 802.4812686643505 437.3035303425596Q798.6259495154143 443.81416864043194 792.4727580260526 449.2524665127724Q786.2940346217973 454.66523247021917 778.7621197281802 458.16310481064477Q771.2302048345632 461.66097715107026 762.8557367494569 461.66097715107026Q754.5068005792441 461.66097715107026 749.8089282388186 456.22267927872986Q745.1365878132866 450.80991332128303 745.1365878132866 444.09501970426174Q745.1365878132866 437.38012608724046 747.3323324941376 428.9290622574532Q749.5280771749888 420.477998427666 752.1068005792441 411.28650906596386L752.1068005792441 411.28650906596386Q759.1025452600951 386.8269345978788 759.2812686643505 376.89501970426176L759.2812686643505 376.89501970426176Q759.2812686643505 372.6822537468149 758.183396323925 370.3843814063894Q757.0855239834993 368.08650906596387 753.9450984515845 368.08650906596387L753.9450984515845 368.08650906596387Q748.4302048345631 368.08650906596387 742.174885685627 374.6992750234107Q735.9450984515845 381.3120409808575 730.4302048345633 391.60140268298517L730.4302048345633 391.60140268298517Q717.7408431324355 415.14182821490004 717.0004176005207 437.5588494914958L717.0004176005207 437.5588494914958Q717.3578644090313 440.13757289575113 717.7408431324355 442.71629630000643Q718.0982899409462 445.2950197042618 718.0982899409462 448.2311899170277L718.0982899409462 448.2311899170277Q718.0982899409462 454.1035303425596 712.3025452600951 458.9801260872405Q706.5323324941377 463.85672183192133 699.3578644090313 463.85672183192133L699.3578644090313 463.85672183192133Q695.1195665366909 463.85672183192133 693.1025452600952 459.72055161915534Q691.0855239834993 455.5843814063894 691.0855239834993 449.50778566170857L691.0855239834993 449.50778566170857Q691.0855239834993 443.45672183192136 693.84297079201 432.9631048106447Q696.6004176005206 422.4950197042617 699.8940346217972 410.7248069383043L699.8940346217972 410.7248069383043Q708.7280771749888 379.6524665127724 708.9068005792441 364.40991332128306L708.9068005792441 364.40991332128306Q708.9068005792441 356.6737431085171 706.9919069622229 352.28225374681494Q705.0514814303078 347.8652324702192 699.5365878132866 347.8652324702192L699.5365878132866 347.8652324702192Q689.6046729196696 347.8652324702192 679.8770133452015 362.009913321283Q670.1238218558399 376.18012608724047 662.4131835579675 405.95033885319793L662.4131835579675 405.95033885319793Q660.370630366478 413.66097715107026 659.2727580260525 419.38012608724046L659.2727580260525 419.38012608724046L659.0940346217973 422.85246651277237Q662.5919069622228 439.7801260872405 662.5919069622228 444.91204098085745L662.5919069622228 444.91204098085745Q662.5919069622228 455.5843814063894 655.0599920686058 459.2609771510703L655.0599920686058 459.2609771510703Q651.5621197281803 460.9205516191554 648.3450984515845 462.37587076809154Q645.1280771749887 463.85672183192133 641.4514814303079 463.85672183192133L641.4514814303079 463.85672183192133Q632.2599920686057 463.85672183192133 632.2599920686057 446.2907643851128Q632.2599920686057 428.75033885319795 641.9876516430738 377.6354452361767L641.9876516430738 377.6354452361767Q645.4855239834994 359.2524665127724 645.4855239834994 357.0567218319213L645.4855239834994 357.0567218319213Q645.4855239834994 342.17161544894265 637.9536090898823 342.17161544894265L637.9536090898823 342.17161544894265Q635.3748856856271 342.17161544894265 633.2557367494569 343.6269345978788Q631.1621197281802 345.1077856617086 629.04297079201 346.76736012979364Q626.9238218558398 348.4014026829852 624.7280771749888 349.88225374681497Q622.5068005792441 351.36310481064476 619.6727580260526 351.36310481064476Q616.8131835579675 351.36310481064476 616.8131835579675 346.3843814063894L616.8131835579675 346.3843814063894Q616.8131835579675 336.27374310851707 626.1833963239249 329.8397005553256L626.1833963239249 329.8397005553256Q635.1961622813717 323.22693459787877 648.0642473877547 323.22693459787877L648.0642473877547 323.22693459787877Q664.6089282388185 323.22693459787877 667.5450984515845 338.67374310851704L667.5450984515845 338.67374310851704Q668.2855239834994 343.26948778936816 668.64297079201 348.4014026829852L668.64297079201 348.4014026829852Q682.2514814303079 322.8694877893681 703.0344601537122 322.8694877893681L703.0344601537122 322.8694877893681Q725.6302048345632 322.8694877893681 728.9493537707334 344.546083534049L728.9493537707334 344.546083534049Q730.0472261111589 350.80140268298516 729.8685027069037 357.97587076809157L729.8685027069037 357.97587076809157L729.8685027069037 359.4311899170277Q741.8174388771164 342.8865090659639 758.183396323925 342.8865090659639L758.183396323925 342.8865090659639Q781.3408431324356 342.8865090659639 781.3408431324356 370.84395587447455L781.3408431324356 370.84395587447455Q781.3408431324356 382.9716154489426 777.5621197281803 399.23544523617664Q773.8089282388186 415.4992750234107 772.0472261111589 422.5971473638362Q770.311055898393 429.66948778936813 770.311055898393 433.5248069383043L770.311055898393 433.5248069383043Q770.311055898393 440.52055161915536 775.1876516430739 440.52055161915536Q780.0642473877547 440.52055161915536 798.447226111159 421.3971473638362L798.447226111159 421.3971473638362Q801.7408431324355 417.7205516191554 803.2216941962654 417.7205516191554ZM839.9876516430738 441.0567218319213L839.9876516430738 441.0567218319213Q854.311055898393 441.0567218319213 867.7408431324355 429.66948778936813L867.7408431324355 429.66948778936813Q872.6940346217972 425.4311899170277 875.8344601537123 421.85672183192133Q878.9493537707334 418.2567218319213 880.6089282388185 418.2567218319213L880.6089282388185 418.2567218319213Q883.1876516430739 418.2567218319213 883.1876516430739 423.41416864043197Q883.1876516430739 428.5716154489426 880.4302048345633 434.90353034255963Q877.6727580260525 441.23544523617664 871.2387154728611 447.3120409808575L871.2387154728611 447.3120409808575Q855.4344601537122 462.1971473638362 827.8599920686057 462.1971473638362L827.8599920686057 462.1971473638362Q805.979141004776 462.1971473638362 798.0642473877547 446.3928920446873L798.0642473877547 446.3928920446873Q795.306800579244 440.877998427666 795.306800579244 430.5886367255383Q795.306800579244 420.2992750234107 799.3663750473291 409.1673601297937Q803.4004176005207 398.03544523617666 810.115311217542 389.96736012979363Q816.8302048345632 381.8737431085171 825.6387154728611 377.3545941723469Q834.4727580260526 372.86097715107024 844.4812686643505 372.86097715107024Q854.5153112175419 372.86097715107024 859.9280771749887 377.81416864043194Q865.3408431324356 382.7928920446873 865.3408431324356 390.6822537468149Q865.3408431324356 398.5971473638362 861.4089282388185 403.6524665127724Q857.4514814303079 408.70778566170856 851.1961622813717 412.1035303425596Q844.9408431324356 415.4992750234107 837.306800579244 418.18012608724047Q829.6982899409462 420.83544523617667 822.3450984515845 424.15459417234683L822.3450984515845 424.15459417234683L822.3450984515845 428.75033885319795Q822.5238218558399 435.3631048106447 827.8599920686057 438.1205516191554Q833.1706303664781 440.877998427666 839.9876516430738 441.0567218319213ZM836.847226111159 389.22693459787877L836.847226111159 389.22693459787877Q827.2982899409462 389.22693459787877 823.6216941962654 411.46523247021923L823.6216941962654 411.46523247021923Q827.4770133452015 408.8865090659639 830.8727580260526 406.8694877893681Q834.2940346217973 404.85246651277237 836.847226111159 403.014168640432L836.847226111159 403.014168640432Q842.3621197281802 398.95459417234684 842.5663750473292 393.8226792787298L842.5663750473292 393.8226792787298Q842.5663750473292 389.22693459787877 836.847226111159 389.22693459787877ZM986.8727580260526 417.7205516191554L986.8727580260526 417.7205516191554Q990.1663750473291 417.7205516191554 990.1663750473291 426.1716154489426L990.1663750473291 426.1716154489426Q990.1663750473291 430.7673601297937 986.311055898393 437.3035303425596Q982.4557367494568 443.81416864043194 976.3025452600951 449.2524665127724Q970.1238218558398 454.66523247021917 962.5919069622229 458.16310481064477Q955.0599920686058 461.66097715107026 947.8855239834994 461.66097715107026L947.8855239834994 461.66097715107026Q937.774885685627 461.66097715107026 934.6599920686058 445.1162963000064L934.6599920686058 445.1162963000064Q923.6302048345632 462.5801260872405 901.9280771749887 462.5801260872405L901.9280771749887 462.5801260872405Q888.7025452600951 462.5801260872405 880.7876516430739 454.4865090659639Q872.8982899409463 446.3928920446873 873.0770133452015 434.80140268298516L873.0770133452015 434.80140268298516Q873.0770133452015 403.5503388531979 893.8344601537121 385.5503388531979L893.8344601537121 385.5503388531979Q908.183396323925 373.2184239595809 923.6302048345632 373.2184239595809L923.6302048345632 373.2184239595809Q930.6004176005207 373.2184239595809 934.6599920686058 374.34182821490003L934.6599920686058 374.34182821490003L938.8727580260526 375.4397005553256Q946.4302048345633 339.95033885319793 956.3365878132867 328.00140268298514L956.3365878132867 328.00140268298514Q959.6557367494569 323.9673601297937 962.9748856856271 323.9673601297937L962.9748856856271 323.9673601297937Q968.2855239834994 323.9673601297937 972.8812686643504 331.32055161915537L972.8812686643504 331.32055161915537Q976.9408431324356 337.3716154489426 976.9408431324356 341.78863672553837Q976.9408431324356 346.2056580021341 975.638715472861 350.4439558744745Q974.3621197281802 354.65672183192135 972.4216941962653 358.2567218319213Q970.5068005792441 361.8311899170277 968.1068005792441 365.22693459787877Q965.7323324941377 368.62267927872983 963.3323324941376 372.1205516191554L963.3323324941376 372.1205516191554Q957.9961622813718 391.9843814063894 955.4174388771164 416.62267927872983L955.4174388771164 416.62267927872983Q954.7025452600952 423.5928920446873 954.7025452600952 427.8311899170277L954.7025452600952 427.8311899170277Q954.7025452600952 440.52055161915536 958.915311217542 440.52055161915536L958.915311217542 440.52055161915536Q963.6897793026484 440.52055161915536 982.0727580260526 421.3971473638362L982.0727580260526 421.3971473638362Q985.3919069622228 417.7205516191554 986.8727580260526 417.7205516191554ZM900.0897793026484 428.75033885319795L900.0897793026484 428.75033885319795Q900.0897793026484 442.89501970426176 910.583396323925 442.89501970426176L910.583396323925 442.89501970426176Q916.8131835579675 442.89501970426176 923.1706303664781 438.1205516191554Q929.5025452600952 433.346083534049 933.0004176005207 422.13757289575113L933.0004176005207 422.13757289575113Q933.3578644090313 405.5928920446873 936.8557367494568 385.7290622574532L936.8557367494568 385.7290622574532Q922.1493537707335 388.66523247021917 911.1195665366909 400.077998427666Q900.0897793026484 411.46523247021923 900.0897793026484 428.75033885319795ZM1003.0344601537122 461.66097715107026L1003.0344601537122 461.66097715107026Q984.6514814303079 461.66097715107026 984.6514814303079 427.26948778936816L984.6514814303079 427.26948778936816Q984.6514814303079 408.52906225745323 989.247226111159 393.2609771510703L989.247226111159 393.2609771510703Q996.4216941962653 369.746083534049 1005.4344601537122 369.746083534049L1005.4344601537122 369.746083534049Q1010.7706303664781 369.746083534049 1013.8855239834994 376.89501970426176L1013.8855239834994 376.89501970426176Q1016.4642473877547 382.40991332128306 1016.2855239834995 387.746083534049L1016.2855239834995 387.746083534049Q1016.2855239834995 395.09927502341066 1011.8685027069035 413.66097715107026L1011.8685027069035 413.66097715107026Q1007.6302048345632 429.84821119362346 1007.6302048345632 433.7035303425596Q1007.6302048345632 437.5588494914958 1009.5706303664782 439.03970055532557Q1011.4855239834994 440.52055161915536 1014.1663750473291 440.52055161915536Q1016.8216941962654 440.52055161915536 1020.8812686643504 437.0226792787298Q1024.9153112175418 433.5248069383043 1028.9493537707335 429.38863672553833Q1033.0089282388185 425.2524665127724 1036.4046729196698 421.75459417234686Q1039.8004176005206 418.2567218319213 1041.1025452600952 418.2567218319213L1041.1025452600952 418.2567218319213Q1043.655736749457 418.2567218319213 1043.655736749457 424.5120409808575L1043.655736749457 424.5120409808575Q1043.655736749457 437.38012608724046 1030.7110558983932 449.609913321283Q1017.7408431324355 461.8397005553256 1003.0344601537122 461.66097715107026ZM1010.5663750473292 354.83544523617667L1010.5663750473292 354.83544523617667Q1005.6131835579675 347.48225374681493 1005.6131835579675 339.0311899170277Q1005.6131835579675 330.5801260872405 1008.2685027069036 324.9631048106447Q1010.9493537707334 319.3716154489426 1013.3238218558398 316.6907643851128Q1015.7238218558399 314.03544523617666 1018.8387154728612 314.03544523617666L1018.8387154728612 314.03544523617666Q1023.9961622813718 314.03544523617666 1028.234460153712 321.66948778936813Q1032.4472261111591 329.30353034255967 1032.4472261111591 334.43544523617663L1032.4472261111591 334.43544523617663Q1032.4472261111591 344.009913321283 1025.7323324941376 349.42267927872985Q1019.04297079201 354.83544523617667 1010.5663750473292 354.83544523617667ZM1060.0216941962653 422.31629630000646L1060.0216941962653 422.31629630000646Q1060.0216941962653 438.2992750234107 1073.6302048345633 438.2992750234107L1073.6302048345633 438.2992750234107Q1088.5153112175421 438.2992750234107 1093.6727580260526 428.009913321283L1093.6727580260526 428.009913321283Q1095.511055898393 424.3333175766022 1095.511055898393 418.5375728957511Q1095.511055898393 412.74182821490007 1092.7536090898825 407.78863672553837L1092.7536090898825 407.78863672553837Q1088.1578644090314 399.87374310851703 1076.9493537707335 390.3248069383043L1076.9493537707335 390.3248069383043Q1058.3621197281805 374.52055161915536 1058.3621197281805 357.51629630000645Q1058.3621197281805 340.51204098085753 1069.0344601537122 331.32055161915537Q1079.7068005792441 322.12906225745326 1093.4940346217973 322.12906225745326Q1107.2812686643506 322.12906225745326 1115.3493537707336 329.0992750234107Q1123.44297079201 336.09501970426174 1123.44297079201 350.06097715107023L1123.44297079201 350.06097715107023Q1123.44297079201 359.2524665127724 1117.2897793026482 366.06948778936817Q1111.1365878132865 372.86097715107024 1101.0259495154141 374.52055161915536L1101.0259495154141 374.52055161915536Q1105.6216941962653 378.37587076809154 1110.2174388771164 382.40991332128306L1110.2174388771164 382.40991332128306Q1114.634460153712 386.46948778936815 1118.311055898393 391.2439558744745L1118.311055898393 391.2439558744745Q1126.379141004776 402.09501970426174 1126.379141004776 417.1588494914958L1126.379141004776 417.1588494914958Q1126.379141004776 427.6524665127724 1121.5280771749888 436.1035303425596Q1116.651481430308 444.5545941723468 1108.8387154728612 450.3503388531979Q1101.0259495154141 456.146083534049 1091.2727580260525 459.2609771510703Q1081.5450984515846 462.37587076809154 1073.0685027069035 462.37587076809154L1073.0685027069035 462.37587076809154Q1055.0685027069035 462.37587076809154 1045.1365878132865 454.1035303425596L1045.1365878132865 454.1035303425596Q1033.5450984515846 444.7333175766022 1033.5450984515846 427.09076438511283L1033.5450984515846 427.09076438511283Q1033.5450984515846 415.4992750234107 1041.1025452600952 404.6737431085171Q1048.634460153712 393.8226792787298 1057.0855239834993 393.8226792787298L1057.0855239834993 393.8226792787298Q1063.6982899409463 393.8226792787298 1063.6982899409463 397.85672183192133L1063.6982899409463 397.85672183192133Q1063.6982899409463 403.75459417234686 1061.8599920686056 409.5248069383043Q1060.0216941962653 415.32055161915537 1060.0216941962653 422.31629630000646ZM1095.6897793026483 370.1035303425596L1095.6897793026483 370.1035303425596Q1106.1578644090314 359.6354452361766 1106.1578644090314 348.22267927872986L1106.1578644090314 348.22267927872986Q1106.1578644090314 344.7248069383043 1102.4812686643504 342.3503388531979L1102.4812686643504 342.3503388531979Q1098.4472261111591 340.1290622574532 1094.0302048345632 340.1290622574532L1094.0302048345632 340.1290622574532Q1084.0982899409462 340.1290622574532 1079.7068005792441 346.56310481064475L1079.7068005792441 346.56310481064475Q1081.902545260095 354.477998427666 1086.2174388771164 359.99289204468727Q1090.5323324941378 365.50778566170857 1095.6897793026483 370.1035303425596ZM1182.0897793026484 441.0567218319213L1182.0897793026484 441.0567218319213Q1196.438715472861 441.0567218319213 1209.84297079201 429.66948778936813L1209.84297079201 429.66948778936813Q1214.8216941962655 425.4311899170277 1217.9365878132867 421.85672183192133Q1221.0514814303078 418.2567218319213 1222.7110558983932 418.2567218319213L1222.7110558983932 418.2567218319213Q1225.2897793026484 418.2567218319213 1225.2897793026484 423.41416864043197Q1225.2897793026484 428.5716154489426 1222.5323324941378 434.90353034255963Q1219.774885685627 441.23544523617664 1213.3408431324356 447.3120409808575L1213.3408431324356 447.3120409808575Q1197.5365878132866 462.1971473638362 1169.9621197281804 462.1971473638362L1169.9621197281804 462.1971473638362Q1148.0812686643505 462.1971473638362 1140.1663750473292 446.3928920446873L1140.1663750473292 446.3928920446873Q1137.4089282388186 440.877998427666 1137.4089282388186 430.5886367255383Q1137.4089282388186 420.2992750234107 1141.4685027069036 409.1673601297937Q1145.502545260095 398.03544523617666 1152.2174388771164 389.96736012979363Q1158.9323324941379 381.8737431085171 1167.7408431324357 377.3545941723469Q1176.5748856856271 372.86097715107024 1186.583396323925 372.86097715107024Q1196.6174388771165 372.86097715107024 1202.0302048345634 377.81416864043194Q1207.4685027069036 382.7928920446873 1207.4685027069036 390.6822537468149Q1207.4685027069036 398.5971473638362 1203.511055898393 403.6524665127724Q1199.5536090898822 408.70778566170856 1193.2982899409462 412.1035303425596Q1187.04297079201 415.4992750234107 1179.4344601537123 418.18012608724047Q1171.8004176005206 420.83544523617667 1164.4472261111591 424.15459417234683L1164.4472261111591 424.15459417234683L1164.4472261111591 428.75033885319795Q1164.6259495154143 435.3631048106447 1169.9621197281804 438.1205516191554Q1175.2982899409462 440.877998427666 1182.0897793026484 441.0567218319213ZM1178.9748856856272 389.22693459787877L1178.9748856856272 389.22693459787877Q1169.4004176005205 389.22693459787877 1165.72382185584 411.46523247021923L1165.72382185584 411.46523247021923Q1169.579141004776 408.8865090659639 1173.0004176005207 406.8694877893681Q1176.3961622813717 404.85246651277237 1178.9748856856272 403.014168640432L1178.9748856856272 403.014168640432Q1184.4897793026485 398.95459417234684 1184.6685027069038 393.8226792787298L1184.6685027069038 393.8226792787298Q1184.6685027069038 389.22693459787877 1178.9748856856272 389.22693459787877ZM1242.9323324941377 430.2056580021341L1242.9323324941377 430.2056580021341L1244.0302048345632 452.64821119362347Q1244.0302048345632 457.0652324702192 1239.434460153712 460.5375728957511Q1234.838715472861 464.03544523617666 1226.9493537707333 464.03544523617666L1226.9493537707333 464.03544523617666Q1222.3536090898824 464.03544523617666 1220.5919069622228 459.2609771510703Q1218.8557367494568 454.4865090659639 1218.8557367494568 445.2950197042618L1218.8557367494568 445.2950197042618Q1218.8557367494568 425.99289204468727 1220.7961622813718 415.03970055532557Q1222.7110558983932 404.1120409808575 1228.4046729196696 392.90353034255963L1228.4046729196696 392.90353034255963Q1219.9536090898823 384.80991332128303 1219.9536090898823 378.93757289575115L1219.9536090898823 378.93757289575115Q1219.9536090898823 366.6056580021341 1233.2046729196693 366.6056580021341L1233.2046729196693 366.6056580021341Q1239.9961622813719 366.6056580021341 1245.1536090898824 373.7801260872405L1245.1536090898824 373.7801260872405Q1248.8302048345633 378.7333175766022 1250.4642473877545 385.37161544894263L1250.4642473877545 385.37161544894263Q1253.04297079201 386.2907643851128 1256.898289940946 386.2907643851128L1256.898289940946 386.2907643851128Q1262.2344601537122 386.2907643851128 1269.230204834563 382.7928920446873L1269.230204834563 382.7928920446873L1274.0046729196695 380.3928920446873Q1276.2004176005205 379.29501970426173 1277.8599920686058 379.29501970426173L1277.8599920686058 379.29501970426173Q1283.1961622813717 379.29501970426173 1288.5323324941376 394.9205516191554L1288.5323324941376 394.9205516191554Q1286.8727580260527 402.09501970426174 1284.9323324941377 408.70778566170856Q1283.0174388771163 415.32055161915537 1280.4387154728608 424.6907643851128Q1277.8599920686058 434.08650906596387 1277.7833963239248 437.3035303425596Q1277.6812686643505 440.52055161915536 1279.698289940946 440.52055161915536L1279.698289940946 440.52055161915536Q1282.4557367494565 440.52055161915536 1286.515311217542 437.0226792787298Q1290.5493537707332 433.5248069383043 1294.583396323925 429.38863672553833Q1298.64297079201 425.2524665127724 1302.0387154728612 421.75459417234686Q1305.434460153712 418.2567218319213 1306.7365878132866 418.2567218319213L1306.7365878132866 418.2567218319213Q1309.2897793026484 418.2567218319213 1309.2897793026484 424.5120409808575L1309.2897793026484 424.5120409808575Q1309.2897793026484 437.2014026829852 1298.1833963239249 449.50778566170857Q1287.051481430308 461.8397005553256 1272.7280771749886 461.66097715107026L1272.7280771749886 461.66097715107026Q1264.2514814303079 461.66097715107026 1260.0387154728612 454.84395587447455Q1255.8004176005209 448.0524665127724 1255.621694196265 438.2992750234107L1255.621694196265 438.2992750234107Q1255.621694196265 418.99714736383623 1264.2514814303079 401.71204098085747L1264.2514814303079 401.71204098085747Q1260.2174388771161 403.37161544894263 1255.1621197281804 403.37161544894263Q1250.1068005792438 403.37161544894263 1247.9110558983928 403.014168640432L1247.9110558983928 403.014168640432Q1246.2514814303079 409.98438140638945 1244.591906962223 417.08225374681496Q1242.9323324941377 424.15459417234683 1242.9323324941377 430.2056580021341ZM1329.1536090898824 380.214168640432L1329.1536090898824 380.214168640432Q1329.1536090898824 392.52055161915536 1324.7365878132866 408.146083534049L1324.7365878132866 408.146083534049Q1325.119566536691 414.04395587447453 1325.119566536691 419.55884949149583Q1325.119566536691 425.0737431085171 1325.8344601537121 429.1077856617086L1325.8344601537121 429.1077856617086Q1328.5919069622225 436.46097715107027 1332.8302048345633 438.1205516191554L1332.8302048345633 438.1205516191554Q1336.5068005792439 438.1205516191554 1340.9238218558396 431.78863672553837Q1345.3408431324353 425.4311899170277 1349.9365878132865 416.62267927872983L1349.9365878132865 416.62267927872983Q1347.7153112175417 408.146083534049 1347.7153112175417 400.61416864043196L1347.7153112175417 400.61416864043196Q1347.7153112175417 387.38863672553833 1351.7748856856272 381.3120409808575L1351.7748856856272 381.3120409808575Q1356.7280771749886 373.60140268298517 1366.838715472861 373.60140268298517Q1376.9493537707333 373.60140268298517 1380.2685027069035 381.3120409808575L1380.2685027069035 381.3120409808575Q1381.5450984515844 384.24821119362343 1381.5450984515844 387.9248069383043L1381.5450984515844 387.9248069383043Q1381.5450984515844 394.56310481064475 1378.2259495154142 401.4567218319213Q1374.9323324941377 408.35033885319797 1367.5791410047761 419.55884949149583L1367.5791410047761 419.55884949149583Q1370.8727580260527 429.28650906596386 1377.5110558983931 429.28650906596386L1377.5110558983931 429.28650906596386Q1385.5791410047761 429.1077856617086 1391.4770133452014 423.5928920446873L1391.4770133452014 423.5928920446873Q1393.6727580260524 421.3971473638362 1395.230204834563 419.7375728957511Q1396.8131835579672 418.077998427666 1398.447226111159 418.077998427666L1398.447226111159 418.077998427666Q1401.0259495154144 418.077998427666 1401.0259495154144 424.15459417234683L1401.0259495154144 424.15459417234683Q1401.0259495154144 435.5418282149001 1394.515311217542 440.7758707680915Q1387.9791410047758 446.03544523617666 1378.0472261111588 446.03544523617666L1378.0472261111588 446.03544523617666Q1365.0004176005207 446.03544523617666 1357.2897793026484 434.62267927872983L1357.2897793026484 434.62267927872983Q1335.7663750473291 462.5801260872405 1321.238715472861 462.5801260872405L1321.238715472861 462.5801260872405Q1315.5450984515844 462.5801260872405 1310.0302048345632 446.3928920446873Q1304.515311217542 430.2056580021341 1301.5791410047757 402.6311899170277L1301.5791410047757 402.6311899170277Q1299.3833963239247 385.1673601297937 1304.1578644090312 377.6354452361767L1304.1578644090312 377.6354452361767Q1308.191906962223 371.76310481064473 1319.9621197281801 371.76310481064473L1319.9621197281801 371.76310481064473Q1324.3791410047759 371.76310481064473 1326.7536090898823 374.4184239595809Q1329.1536090898824 377.0992750234107 1329.1536090898824 380.214168640432Z " fill="#209cee" transform="matrix(0.6245423174179404,0,0,0.6245423174179405,0,57.0308901408969)"/></g></svg>